<?xml version="1.0" standalone="no"?>
<!DOCTYPE svg PUBLIC "-//W3C//DTD SVG 20010904//EN"
 "http://www.w3.org/TR/2001/REC-SVG-20010904/DTD/svg10.dtd">
<svg version="1.0" xmlns="http://www.w3.org/2000/svg"
 width="800.000000pt" height="839.000000pt" viewBox="0 0 800.000000 839.000000"
 preserveAspectRatio="xMidYMid meet">

<g transform="translate(0.000000,839.000000) scale(0.100000,-0.100000)"
fill="#000000" stroke="none">
<path d="M0 4215 l0 -4175 4000 0 4000 0 0 4175 0 4175 -4000 0 -4000 0 0
-4175z m3614 4039 c18 -17 21 -40 7 -48 -5 -3 -11 4 -14 15 -5 19 -12 21 -61
17 -39 -2 -56 1 -56 9 0 11 27 18 82 22 15 0 34 -6 42 -15z m-139 -34 c-3 -5
-13 -10 -21 -10 -8 0 -17 -7 -20 -15 -4 -8 -15 -15 -25 -15 -10 0 -19 -5 -19
-11 0 -6 -14 -25 -30 -42 -17 -18 -37 -39 -45 -48 -8 -9 -15 -23 -15 -32 0
-10 -4 -17 -10 -17 -5 0 -10 9 -10 20 0 11 5 20 10 20 6 0 13 8 17 18 11 30
132 142 154 142 11 0 17 -4 14 -10z m71 -25 c4 -9 -9 -38 -30 -68 -20 -29 -36
-58 -36 -65 0 -6 -4 -12 -10 -12 -5 0 -10 -10 -10 -22 0 -13 -7 -36 -15 -52
-23 -43 -24 -286 -1 -321 9 -13 16 -33 16 -43 0 -11 7 -25 15 -32 8 -7 15 -18
15 -24 0 -11 42 -63 97 -119 32 -33 72 -54 119 -63 19 -3 41 -16 49 -27 17
-24 20 -93 5 -131 -8 -22 -16 -26 -49 -26 -50 0 -84 -13 -131 -50 -58 -46 -80
-40 -158 38 -54 52 -78 87 -111 157 -24 50 -48 99 -53 110 -30 55 -28 409 1
438 6 6 11 21 11 33 0 12 7 27 15 34 8 7 15 21 15 31 0 9 7 24 15 33 8 8 15
18 15 23 0 18 87 108 134 139 57 37 74 41 82 19z m1329 -22 c38 -42 43 -53 20
-53 -21 0 -19 -13 5 -35 11 -10 20 -26 20 -37 0 -10 4 -18 9 -18 5 0 13 -10
16 -22 23 -76 56 -119 67 -86 2 6 2 -18 0 -54 -2 -38 1 -74 7 -86 6 -12 16
-45 21 -73 9 -44 7 -56 -9 -83 -10 -17 -22 -60 -26 -94 -4 -35 -13 -76 -21
-90 -8 -15 -14 -32 -14 -37 0 -35 -94 -171 -161 -234 -67 -63 -139 -111 -166
-111 -10 0 -31 16 -46 35 -15 19 -35 35 -43 35 -8 0 -24 20 -35 46 -37 83 -7
152 74 170 17 3 43 14 57 22 43 27 146 138 159 173 7 19 19 46 27 61 8 14 14
37 14 51 0 13 7 41 15 60 20 48 21 280 1 318 -26 50 -28 77 -6 84 20 6 28 35
10 35 -5 0 -10 7 -10 16 0 13 -7 15 -30 11 -30 -6 -46 5 -35 23 13 21 47 9 80
-27z m-1275 -2 c0 -6 -4 -13 -10 -16 -5 -3 -10 1 -10 9 0 9 5 16 10 16 6 0 10
-4 10 -9z m-38 -53 c-9 -9 -12 -7 -12 12 0 19 3 21 12 12 9 -9 9 -15 0 -24z
m1378 -19 c0 -5 -7 -9 -15 -9 -15 0 -20 12 -9 23 8 8 24 -1 24 -14z m-1400
-23 c0 -3 -4 -8 -10 -11 -5 -3 -10 -1 -10 4 0 6 5 11 10 11 6 0 10 -2 10 -4z
m1422 -38 c-9 -9 -12 -7 -12 12 0 19 3 21 12 12 9 -9 9 -15 0 -24z m-1452 -22
c0 -8 -4 -18 -10 -21 -5 -3 -10 3 -10 14 0 12 5 21 10 21 6 0 10 -6 10 -14z
m-243 -28 c-3 -8 -6 -5 -6 6 -1 11 2 17 5 13 3 -3 4 -12 1 -19z m1720 0 c-3
-8 -6 -5 -6 6 -1 11 2 17 5 13 3 -3 4 -12 1 -19z m-1477 -384 c0 -8 -4 -14
-10 -14 -5 0 -10 9 -10 21 0 11 5 17 10 14 6 -3 10 -13 10 -21z m612 4 c29
-27 78 -58 91 -58 8 0 20 -7 27 -15 7 -8 18 -15 25 -15 7 0 15 -7 19 -15 3 -8
17 -15 31 -15 20 0 25 -5 25 -25 0 -31 -16 -32 -40 -2 -10 12 -40 33 -66 47
-27 14 -50 28 -52 33 -2 4 -9 7 -17 7 -7 0 -18 7 -25 15 -7 9 -21 13 -35 9
-25 -6 -40 9 -31 31 7 18 30 19 48 3z m-198 -43 c15 -8 50 -15 77 -15 26 0 51
-4 54 -10 9 -15 -80 -12 -140 4 -27 7 -56 11 -62 9 -15 -5 -18 -33 -4 -33 15
0 24 -41 12 -53 -8 -8 -14 -8 -23 1 -17 17 -48 15 -48 -2 0 -22 -54 -56 -89
-56 -17 0 -31 5 -31 10 0 6 11 10 24 10 41 0 55 11 62 47 4 24 14 37 30 43 13
6 24 18 24 28 0 10 3 22 7 25 12 12 77 7 107 -8z m866 6 c0 -6 -4 -13 -10 -16
-5 -3 -10 1 -10 9 0 9 5 16 10 16 6 0 10 -4 10 -9z m-1258 -33 c-9 -9 -12 -7
-12 12 0 19 3 21 12 12 9 -9 9 -15 0 -24z m847 5 c33 -85 86 -150 114 -140 16
6 49 -12 42 -23 -3 -5 -22 -6 -42 -3 -40 7 -72 36 -103 96 -11 20 -27 37 -36
37 -20 0 -29 27 -14 45 18 22 27 19 39 -12z m-271 -10 c17 -38 15 -45 -10 -41
-23 3 -34 28 -24 54 8 21 20 17 34 -13z m939 -5 c-3 -7 -5 -2 -5 12 0 14 2 19
5 13 2 -7 2 -19 0 -25z m-296 -11 c-8 -8 -11 -7 -11 4 0 20 13 34 18 19 3 -7
-1 -17 -7 -23z m-1181 -11 c0 -8 8 -17 18 -20 9 -4 31 -14 47 -24 l30 -17 -25
-3 c-13 -2 -26 1 -28 7 -2 6 -10 11 -17 11 -7 0 -20 11 -29 25 -18 27 -21 49
-6 40 6 -3 10 -12 10 -19z m-363 -18 c-3 -7 -5 -2 -5 12 0 14 2 19 5 13 2 -7
2 -19 0 -25z m833 -8 c3 -4 14 -10 25 -14 11 -3 43 -26 70 -51 75 -67 111 -55
64 22 -26 41 -21 49 18 30 39 -21 82 -65 97 -102 26 -61 66 -70 66 -14 0 35
15 38 24 4 5 -19 13 -25 34 -25 l27 0 -3 -97 -3 -98 56 -35 c37 -23 66 -51 86
-82 33 -55 34 -58 15 -58 -12 0 -39 25 -136 128 -36 38 -54 34 -45 -10 l7 -31
-38 7 c-22 4 -43 12 -48 17 -6 5 -18 9 -28 9 -11 0 -33 7 -50 16 -28 14 -32
14 -46 0 -14 -14 -18 -14 -34 1 -14 13 -20 13 -33 3 -12 -10 -15 -10 -15 3 0
24 -40 57 -69 57 -14 -1 -40 -9 -57 -18 -112 -60 -181 -92 -201 -92 -38 0 -26
14 38 44 60 27 82 52 60 65 -14 9 -69 2 -77 -10 -17 -28 -24 1 -23 89 0 53 -3
106 -7 116 -6 17 -4 18 17 12 70 -22 70 -21 53 13 -21 43 -12 49 28 19 39 -29
96 -53 105 -44 11 11 -38 93 -63 105 -24 11 -30 22 -17 35 8 8 96 -4 103 -14z
m690 5 c0 -8 -7 -15 -15 -15 -8 0 -15 -7 -15 -15 0 -8 -6 -15 -14 -15 -8 0
-16 -7 -20 -15 -3 -8 -15 -15 -26 -15 -11 0 -23 -7 -26 -15 -4 -9 -19 -15 -36
-15 -17 0 -27 4 -23 10 3 6 15 10 25 10 10 0 25 7 34 15 8 8 18 15 23 15 4 0
26 16 48 35 47 40 45 39 45 20z m293 -70 c-7 -21 -13 -19 -13 6 0 11 4 18 10
14 5 -3 7 -12 3 -20z m717 -54 c0 -10 -11 -28 -24 -40 -41 -39 -69 -117 -62
-175 7 -60 36 -93 92 -106 64 -15 1562 -11 1603 4 78 28 100 124 52 219 -14
26 -28 47 -33 47 -17 0 -32 48 -19 63 19 24 109 10 162 -26 97 -64 144 -179
137 -336 -5 -103 -30 -177 -86 -242 -52 -63 -147 -106 -249 -114 -37 -3 -69
-8 -72 -11 -2 -2 10 -19 28 -38 43 -44 81 -150 81 -224 0 -166 -95 -292 -219
-292 -38 0 -41 -2 -51 -39 -12 -47 -23 -51 -142 -51 -49 0 -88 -4 -88 -9 0 -5
12 -30 27 -57 89 -158 -46 -358 -257 -383 -161 -19 -288 31 -367 147 -34 49
-37 59 -38 126 0 49 5 80 16 96 31 49 29 66 -11 99 -20 16 -46 48 -56 70 l-19
40 -40 -19 c-32 -16 -63 -19 -163 -20 -68 0 -132 5 -143 10 -18 10 -19 24 -19
275 0 251 -1 265 -19 275 -11 5 -30 10 -43 10 -36 0 -109 31 -160 67 -149 108
-184 365 -72 539 55 88 129 126 222 115 22 -2 32 -8 32 -20z m-747 -16 c4 -8
2 -17 -3 -20 -6 -4 -10 3 -10 14 0 25 6 27 13 6z m-1723 -31 c0 -8 -4 -12 -10
-9 -5 3 -10 13 -10 21 0 8 5 12 10 9 6 -3 10 -13 10 -21z m1700 -21 c0 -5 -5
-15 -10 -23 -8 -12 -10 -11 -10 8 0 12 5 22 10 22 6 0 10 -3 10 -7z m-1670
-39 c0 -8 -4 -12 -10 -9 -5 3 -10 13 -10 21 0 8 5 12 10 9 6 -3 10 -13 10 -21z
m1640 -12 c0 -8 -55 -76 -90 -113 -27 -28 -98 -79 -109 -79 -6 0 -11 5 -11 10
0 6 7 10 15 10 9 0 18 7 21 15 4 8 12 15 20 15 7 0 17 6 21 14 12 22 117 135
126 135 4 1 7 -3 7 -7z m-1610 -37 c0 -8 7 -15 15 -15 8 0 15 -4 15 -10 0 -11
59 -70 86 -86 26 -15 28 -37 5 -49 -83 -42 -111 -60 -111 -70 0 -12 42 -52
106 -103 29 -24 55 -34 93 -39 28 -3 54 -10 57 -14 3 -5 19 -9 35 -9 17 0 32
-6 36 -15 9 -26 -3 -27 -46 -6 -23 12 -59 21 -85 21 -36 0 -54 8 -102 44 -33
23 -74 60 -93 81 -41 45 -37 57 32 92 32 17 47 32 47 45 0 10 -25 44 -55 75
-54 55 -65 73 -45 73 6 0 10 -7 10 -15z m305 -115 c9 -14 -27 -46 -85 -75 -85
-43 -90 -25 -10 33 76 54 85 58 95 42z m1074 -72 c-10 -23 -7 -29 23 -60 80
-83 118 -134 118 -155 0 -15 -6 -23 -17 -23 -10 0 -27 -7 -37 -15 -11 -8 -35
-15 -53 -15 -19 0 -44 -7 -56 -14 -33 -22 -157 -17 -157 5 0 14 12 17 78 16
113 0 197 19 211 50 14 30 14 33 -2 33 -13 0 -22 9 -76 80 -19 25 -43 53 -53
63 -25 25 -20 48 12 59 21 7 22 4 9 -24z m-689 -33 c23 -19 43 -35 45 -35 2 0
21 16 42 35 21 19 43 35 48 35 29 -1 38 -20 39 -86 1 -78 -1 -76 117 -112 55
-17 73 -19 103 -10 63 20 83 -20 50 -102 -9 -22 -18 -40 -21 -40 -13 0 -63 32
-63 41 0 5 -11 14 -25 19 -14 5 -25 14 -25 20 0 22 -54 43 -145 55 -124 18
-162 7 -193 -52 -20 -37 -13 -80 24 -147 63 -115 148 -170 202 -129 13 10 44
54 68 98 24 44 47 79 51 79 4 -1 15 -16 24 -34 10 -17 24 -39 32 -48 22 -24
34 -94 16 -90 -15 3 -123 -27 -151 -43 -28 -14 -99 -11 -149 9 -59 22 -96 53
-160 132 -43 53 -50 68 -45 93 3 16 17 38 31 49 34 27 31 65 -5 60 -14 -2 -29
-7 -35 -11 -5 -4 -25 -6 -42 -5 -18 1 -44 2 -58 3 -31 1 -49 34 -40 77 8 46
40 53 103 24 26 -13 71 -25 100 -28 45 -4 57 -1 77 18 32 30 31 40 -5 75 -22
21 -42 29 -80 33 -54 5 -68 25 -27 42 38 15 54 11 97 -25z m359 -10 c26 -13
41 -33 41 -55 0 -5 -14 -4 -31 2 -17 6 -50 8 -75 4 -50 -6 -56 4 -22 41 25 27
48 29 87 8z m-555 -306 c-27 -11 -34 -10 -34 0 0 11 31 20 44 13 5 -3 1 -9
-10 -13z m694 -71 l-1 -63 -6 50 c-6 47 -4 75 5 75 2 0 3 -28 2 -62z m-871
-30 c-2 -13 -4 -3 -4 22 0 25 2 35 4 23 2 -13 2 -33 0 -45z m251 -8 c18 -27
37 -50 43 -50 6 0 24 -13 42 -30 18 -16 54 -41 80 -55 43 -22 61 -25 158 -25
102 0 109 -1 109 -20 0 -24 -34 -60 -55 -60 -9 0 -18 -7 -21 -15 -4 -8 -10
-12 -16 -9 -5 3 -55 5 -112 5 -89 -1 -105 1 -120 18 -11 13 -15 27 -11 44 6
23 3 27 -21 33 -15 4 -52 31 -81 61 -42 42 -60 53 -81 51 -24 -3 -27 0 -27 27
0 25 4 30 23 28 12 -2 22 3 22 10 0 13 19 37 30 37 3 0 20 -22 38 -50z m-268
-63 c0 -7 -5 -18 -12 -25 -9 -9 -9 -15 0 -24 7 -7 12 -26 12 -44 0 -17 9 -60
20 -94 11 -34 20 -69 20 -77 0 -8 9 -33 20 -55 26 -54 25 -58 -7 -49 -23 6
-28 13 -28 39 0 53 -16 46 -97 -46 -33 -38 -58 -53 -58 -34 1 13 30 207 38
252 5 25 15 55 22 67 25 39 2 37 -43 -3 -53 -47 -106 -88 -121 -93 -6 -2 -27
-16 -46 -31 -40 -31 -81 -44 -126 -41 -25 2 -40 -6 -72 -38 -31 -31 -48 -41
-73 -41 -18 0 -40 -7 -50 -16 -9 -8 -28 -14 -41 -12 -20 3 -17 7 22 25 25 12
59 24 77 27 20 3 46 20 67 43 31 35 39 38 88 38 48 1 61 6 133 55 43 30 102
77 130 103 27 26 60 50 72 53 12 3 24 12 27 20 7 18 26 18 26 1z m960 -87 c19
-21 48 -55 64 -74 16 -20 35 -36 42 -36 7 0 14 -3 16 -7 9 -22 71 -53 105 -53
30 0 44 -7 65 -30 20 -23 35 -30 62 -30 19 0 37 -4 40 -9 3 -4 34 -12 68 -15
62 -7 98 -26 98 -53 0 -18 -17 -17 -27 2 -5 8 -34 19 -68 24 -91 14 -147 32
-181 58 -17 13 -45 23 -62 23 -22 0 -53 17 -111 61 -45 33 -81 66 -81 73 0 7
-13 23 -30 36 -16 13 -30 29 -30 36 0 8 -7 14 -15 14 -10 0 -15 9 -14 28 0 24
1 25 12 9 7 -11 28 -36 47 -57z m-204 -99 c-9 -16 -16 -40 -16 -53 -1 -34 -54
-121 -83 -136 -19 -9 -37 -10 -69 -3 -33 8 -60 6 -107 -4 -70 -17 -105 -8 -94
23 14 39 24 42 124 42 111 0 141 8 165 45 19 28 13 45 -10 26 -11 -9 -24 -10
-57 -1 -50 14 -37 30 23 30 31 0 45 8 85 48 38 38 49 45 51 31 2 -10 -4 -31
-12 -48z m175 17 c11 -11 19 -30 19 -40 0 -11 12 -70 26 -131 56 -243 54 -223
28 -246 -23 -20 -32 -65 -16 -75 5 -3 15 6 23 21 15 29 85 63 128 63 15 0 54
5 86 12 51 10 59 9 70 -6 11 -14 9 -24 -8 -55 -35 -65 -26 -71 114 -71 l122 0
-6 51 c-4 28 -2 60 3 69 8 16 14 17 40 7 22 -9 33 -8 42 1 9 9 4 21 -22 54
-19 24 -40 47 -47 51 -15 9 -18 37 -3 37 5 0 13 -6 17 -14 4 -7 21 -30 37 -50
38 -47 66 -47 91 0 10 19 42 60 71 90 40 41 59 54 82 54 16 0 35 7 42 15 7 9
23 15 34 13 28 -4 33 -48 9 -85 -25 -39 -34 -44 -70 -38 -37 7 -54 -13 -73
-83 -10 -38 -8 -46 15 -85 17 -30 25 -59 25 -90 0 -40 -5 -52 -40 -88 -22 -23
-40 -46 -40 -51 0 -9 11 -24 43 -59 9 -10 17 -23 17 -29 0 -5 4 -10 9 -10 5 0
17 -15 26 -32 70 -134 105 -209 105 -225 0 -10 7 -31 15 -47 12 -23 15 -73 15
-255 0 -125 -3 -231 -7 -234 -3 -4 -19 -44 -34 -89 l-27 -81 -14 28 -15 28
-28 -52 c-29 -53 -52 -64 -75 -36 -7 8 -23 15 -36 15 -32 0 -30 13 7 74 42 67
84 185 98 272 23 146 31 201 31 216 0 8 -14 33 -31 54 -28 34 -50 76 -91 174
-28 66 -46 94 -100 151 -32 35 -58 69 -58 76 0 25 -29 25 -77 2 -29 -15 -77
-26 -123 -31 -41 -4 -87 -10 -102 -14 -46 -11 -34 22 17 47 42 21 49 22 95 10
45 -12 53 -11 82 6 18 10 37 29 43 41 11 24 31 27 105 13 24 -5 46 -14 48 -20
7 -21 20 -11 27 19 4 16 14 34 23 39 29 16 4 25 -35 13 -21 -6 -73 -14 -117
-17 -43 -3 -86 -10 -95 -15 -18 -9 -120 -23 -186 -24 -39 -1 -39 -2 -65 -66
-18 -48 -38 -78 -72 -109 -26 -24 -73 -76 -103 -116 -54 -70 -56 -75 -50 -118
5 -34 2 -54 -14 -87 -12 -24 -21 -48 -21 -52 0 -10 -35 -92 -51 -121 -60 -108
-61 -128 -2 -175 46 -35 102 -55 136 -47 16 5 35 -1 60 -18 31 -21 48 -24 134
-26 106 -1 109 -1 215 70 56 38 119 61 135 50 5 -3 12 -14 16 -23 8 -23 24
-23 36 0 12 22 5 33 -37 57 -31 18 -34 19 -78 2 -25 -9 -77 -38 -115 -64 -69
-46 -74 -47 -158 -51 -95 -5 -131 6 -131 38 0 17 -4 18 -26 10 -32 -13 -85
-13 -118 0 -28 10 -66 45 -66 60 0 5 31 30 68 55 38 24 100 80 138 122 38 43
89 99 115 126 46 47 47 47 112 47 111 0 130 -13 225 -156 59 -91 82 -134 82
-157 0 -25 7 -37 30 -52 17 -11 33 -31 37 -44 11 -43 -39 -192 -71 -213 -6 -4
-28 -8 -48 -8 -30 0 -46 -8 -80 -41 l-43 -41 -90 -3 c-76 -2 -99 1 -147 21
-64 27 -98 30 -98 12 -1 -7 -14 -29 -30 -48 -17 -19 -30 -39 -30 -45 0 -5 -4
-16 -9 -24 -21 -32 -116 83 -183 220 -44 90 -78 250 -78 364 0 83 22 229 41
274 13 30 4 57 -21 64 -11 3 -20 12 -20 20 0 20 17 31 25 17 14 -23 36 -6 81
61 30 46 47 81 46 100 0 16 4 29 9 29 5 0 9 -4 9 -10 0 -5 7 -10 15 -10 8 0
15 4 15 9 0 12 101 116 120 124 13 5 12 8 -4 21 -11 9 -31 16 -44 16 -14 0
-38 14 -57 33 -25 25 -43 33 -76 35 -24 1 -100 12 -169 24 -69 13 -150 22
-180 22 l-55 -2 101 102 c55 55 121 129 146 163 44 60 108 195 108 227 0 22 9
20 31 -6z m-691 -38 c0 -5 -4 -10 -10 -10 -5 0 -10 5 -10 10 0 6 5 10 10 10 6
0 10 -4 10 -10z m185 -30 c-3 -5 -10 -10 -16 -10 -5 0 -9 5 -9 10 0 6 7 10 16
10 8 0 12 -4 9 -10z m-217 -22 c-4 -27 -28 -36 -28 -10 0 20 8 32 22 32 5 0 8
-10 6 -22z m1521 -52 c15 -18 -5 -73 -31 -82 -26 -8 -32 0 -32 42 0 47 37 71
63 40z m-2394 -76 c-3 -5 -13 -10 -21 -10 -17 0 -141 -124 -149 -151 -4 -10
-11 -19 -16 -19 -14 0 -11 17 6 34 8 8 15 18 15 22 0 4 15 22 33 39 17 18 40
41 49 51 9 11 23 24 30 31 16 15 62 17 53 3z m696 -50 c6 -16 15 -30 20 -30 5
0 9 -13 9 -29 0 -17 5 -33 10 -36 15 -10 12 -32 -6 -39 -10 -4 -25 3 -40 19
-13 14 -28 25 -34 25 -11 0 -14 102 -3 113 15 15 35 5 44 -23z m89 -35 c0 -8
9 -19 21 -26 27 -14 10 -34 -20 -24 -15 4 -21 15 -21 36 0 16 5 29 10 29 6 0
10 -7 10 -15z m183 -99 c62 -28 44 -50 -43 -52 -30 0 -65 -4 -77 -9 -19 -6
-23 -4 -23 14 0 16 6 21 25 21 14 0 34 11 47 25 11 13 24 23 27 21 3 -1 23
-10 44 -20z m-1170 -36 c-3 -11 -9 -20 -14 -20 -10 0 -11 12 -3 34 9 22 23 10
17 -14z m897 1 c0 -20 -17 -37 -27 -28 -7 8 7 47 18 47 5 0 9 -9 9 -19z m-924
-47 c-3 -9 -6 -20 -6 -25 0 -6 -4 -8 -9 -5 -12 8 -2 46 11 46 6 0 7 -7 4 -16z
m247 -43 c-3 -18 1 -22 20 -19 12 2 22 -1 22 -7 -1 -26 -30 -115 -38 -115 -5
0 -7 7 -3 15 10 27 -11 65 -38 65 -22 0 -36 16 -36 41 0 5 9 18 21 30 26 26
55 21 52 -10z m-154 -75 c-21 -20 -22 -20 -15 -1 4 11 13 37 19 58 l12 39 3
-38 c3 -28 -2 -42 -19 -58z m745 53 c-3 -5 -10 -7 -15 -3 -5 3 -7 10 -3 15 3
5 10 7 15 3 5 -3 7 -10 3 -15z m-873 -32 c-8 -8 -11 -3 -11 19 1 25 2 27 11
11 8 -14 8 -22 0 -30z m1015 7 c-5 -13 -10 -14 -18 -6 -6 6 -8 18 -4 28 5 13
10 14 18 6 6 -6 8 -18 4 -28z m398 20 c9 -3 16 -15 16 -25 0 -16 -5 -18 -26
-13 -18 5 -32 0 -50 -17 l-24 -22 0 26 c0 18 8 31 28 41 31 18 35 18 56 10z
m-1187 -57 c12 -25 6 -74 -9 -83 -5 -3 -21 -3 -35 1 -23 5 -24 9 -18 43 6 33
27 62 45 62 4 0 12 -10 17 -23z m-260 -54 c-3 -10 -5 -4 -5 12 0 17 2 24 5 18
2 -7 2 -21 0 -30z m1676 26 c-8 -8 -16 -8 -30 0 -16 9 -14 10 12 11 21 0 26
-3 18 -11z m272 -14 c0 -15 -7 -20 -25 -20 -23 0 -26 -5 -34 -63 -10 -73 -33
-81 -28 -10 4 58 -25 100 -57 81 -33 -21 -100 -1 -101 30 0 4 55 7 123 5 114
-3 122 -4 122 -23z m-844 -18 c-13 -13 -26 -3 -16 12 3 6 11 8 17 5 6 -4 6
-10 -1 -17z m-311 -21 c0 -17 -47 -49 -55 -37 -6 11 37 61 47 55 5 -3 8 -11 8
-18z m676 -126 l-1 -65 -45 0 -45 0 -1 95 c-2 96 6 121 34 98 10 -9 17 -7 30
6 16 16 17 14 23 -26 3 -24 5 -72 5 -108z m210 84 c-4 -16 -1 -26 11 -33 17
-10 17 -12 -2 -26 -10 -8 -24 -14 -30 -12 -11 4 -12 77 -1 96 12 19 28 1 22
-25z m-545 -11 c13 -21 36 -50 51 -65 30 -28 39 -78 14 -78 -8 0 -37 25 -65
56 -41 44 -51 63 -51 90 0 46 22 44 51 -3z m-421 -69 c6 -14 10 -39 10 -55 0
-24 -4 -29 -25 -29 -40 0 -74 -83 -40 -96 25 -10 17 -41 -15 -64 -33 -24 -38
-45 -15 -70 14 -16 14 -26 -2 -107 -23 -112 -64 -170 -128 -180 -30 -5 -53
-19 -90 -56 -96 -94 -145 -127 -238 -157 -63 -20 -74 -21 -135 -10 -37 7 -72
16 -77 20 -6 5 -58 12 -117 16 -83 5 -111 4 -124 -7 -13 -11 -17 -10 -25 2 -5
8 -7 20 -4 27 3 8 5 24 5 37 0 15 7 26 20 30 18 6 20 12 14 51 -6 39 -3 46 24
74 25 24 39 30 74 30 93 0 180 40 248 113 54 58 77 71 199 117 80 30 137 36
135 15 -1 -10 -23 -22 -114 -62 -25 -11 -66 -37 -93 -57 -26 -20 -51 -36 -56
-36 -5 0 -14 -7 -21 -15 -7 -8 -21 -15 -31 -15 -10 0 -31 -11 -46 -25 -24 -21
-26 -26 -13 -35 35 -23 96 -1 172 64 23 21 68 53 98 73 30 19 75 49 99 66 49
34 61 28 61 -31 0 -52 20 -34 42 38 22 71 44 127 58 150 16 25 50 102 50 111
0 5 3 9 8 9 4 0 18 20 32 45 28 51 46 57 60 19z m-737 -39 c-7 -21 -13 -19
-13 6 0 11 4 18 10 14 5 -3 7 -12 3 -20z m1757 8 c0 -14 -37 -17 -64 -7 -29
11 -17 21 24 20 25 0 40 -5 40 -13z m450 -116 c0 -21 -9 -42 -25 -60 -30 -31
-38 -33 -55 -12 -15 18 -5 31 25 37 12 2 23 16 29 36 12 41 26 41 26 -1z
m-2230 -26 c0 -5 -21 -20 -46 -33 -26 -12 -64 -40 -85 -62 -56 -55 -57 -40 -3
22 30 35 53 52 69 52 12 0 25 7 29 15 6 16 36 21 36 6z m151 -68 c57 -21 63
-46 12 -51 -20 -2 -37 -12 -47 -28 -9 -13 -23 -24 -31 -24 -8 0 -15 -4 -15 -9
0 -4 -18 -21 -39 -36 -33 -22 -51 -27 -100 -27 -67 0 -81 5 -81 31 0 37 95
131 133 131 7 0 30 7 52 15 52 18 58 18 116 -2z m-344 -115 c-3 -7 -5 -2 -5
12 0 14 2 19 5 13 2 -7 2 -19 0 -25z m-17 -123 c0 -8 -4 -17 -10 -20 -6 -4
-10 5 -10 20 0 15 4 24 10 20 6 -3 10 -12 10 -20z m-30 -69 c0 -17 -14 -29
-23 -20 -8 8 3 34 14 34 5 0 9 -6 9 -14z m1879 -35 c11 -7 8 -16 -15 -45 -33
-41 -36 -42 -54 -21 -21 26 5 65 50 74 3 0 11 -3 19 -8z m-1918 -58 c-9 -15
-10 -13 -11 13 0 17 3 34 8 38 11 12 14 -32 3 -51z m-21 -72 c0 -11 -4 -23
-10 -26 -6 -4 -10 5 -10 19 0 14 5 26 10 26 6 0 10 -9 10 -19z m955 -31 c8
-13 -14 -42 -26 -34 -14 8 -88 -37 -95 -58 -3 -10 -10 -18 -15 -18 -5 0 -9 -9
-9 -19 0 -20 -17 -37 -27 -27 -16 15 57 110 113 146 34 22 50 24 59 10z m55
-102 c0 -4 7 -13 15 -21 31 -32 106 -149 101 -160 -2 -7 -8 -2 -11 11 -4 12
-14 22 -21 22 -8 0 -14 4 -14 9 0 6 -27 46 -60 89 -33 44 -60 83 -60 86 0 9
49 -27 50 -36z m-1010 -96 c0 -7 -4 -10 -10 -7 -5 3 -10 16 -10 28 0 18 2 19
10 7 5 -8 10 -21 10 -28z m774 6 c-3 -13 -11 -24 -15 -26 -5 -2 -9 -9 -9 -16
0 -34 -144 -151 -200 -162 -14 -2 -41 -10 -59 -16 -45 -14 -109 -14 -124 1 -6
6 -28 11 -49 11 -25 0 -41 5 -44 15 -4 8 -12 15 -19 15 -7 0 -40 20 -74 45
-41 30 -71 45 -91 45 -30 0 -90 35 -90 52 0 14 30 9 36 -6 3 -7 23 -16 45 -20
33 -5 143 -63 188 -99 18 -15 119 -47 149 -47 25 0 144 31 152 40 3 3 21 13
42 24 53 27 130 105 142 144 4 12 12 22 17 22 6 0 7 -10 3 -22z m2180 -34 c9
-3 16 -16 16 -29 0 -20 -5 -22 -42 -21 -24 0 -53 -3 -65 -7 -30 -11 -31 11 -3
41 20 22 61 29 94 16z m229 -60 c-15 -21 -43 -52 -60 -71 -18 -18 -33 -38 -33
-43 0 -6 -4 -10 -10 -10 -16 0 -12 30 5 36 8 4 15 12 15 19 0 7 20 31 45 54
25 23 45 47 45 55 0 20 15 30 18 12 2 -8 -9 -32 -25 -52z m-1583 16 c0 -23 -4
-30 -20 -30 -24 0 -25 8 -4 38 20 29 24 28 24 -8z m1469 -2 c5 -15 4 -26 -2
-30 -17 -10 -27 0 -27 28 0 30 18 31 29 2z m-1199 4 c0 -4 -9 -13 -20 -20 -18
-11 -20 -10 -20 8 0 13 7 20 20 20 11 0 20 -3 20 -8z m750 -36 c0 -14 -5 -28
-10 -31 -13 -8 -24 20 -16 40 9 24 26 17 26 -9z m-135 -6 c-10 -11 -22 -20
-27 -20 -4 0 -8 9 -8 20 0 15 7 20 27 20 25 0 26 0 8 -20z m259 10 c43 -16 33
-40 -18 -40 -32 0 -50 -6 -71 -25 -15 -14 -25 -22 -23 -18 45 94 58 104 112
83z m-1106 -63 c3 -12 -3 -17 -22 -17 -29 0 -44 19 -25 31 20 13 43 6 47 -14z
m802 -21 c0 -14 -4 -28 -10 -31 -6 -4 -10 7 -10 24 0 17 5 31 10 31 6 0 10
-11 10 -24z m137 -38 c-3 -8 -6 -5 -6 6 -1 11 2 17 5 13 3 -3 4 -12 1 -19z
m479 -45 c-11 -11 -19 6 -11 24 8 17 8 17 12 0 3 -10 2 -21 -1 -24z m-1896 -9
c0 -8 -4 -12 -10 -9 -5 3 -10 13 -10 21 0 8 5 12 10 9 6 -3 10 -13 10 -21z
m30 -35 c0 -5 -4 -9 -10 -9 -5 0 -10 7 -10 16 0 8 5 12 10 9 6 -3 10 -10 10
-16z m1806 -83 c-29 -28 -43 -33 -81 -32 -35 1 -45 5 -43 16 4 17 48 27 48 11
0 -36 98 28 101 66 1 12 3 10 6 -6 4 -17 -5 -31 -31 -55z m-1486 49 c7 -9 10
-18 7 -21 -10 -11 -37 5 -37 21 0 19 14 19 30 0z m283 -4 c13 -2 -11 -38 -29
-45 -10 -4 -22 -2 -28 4 -5 5 -37 10 -70 10 -73 0 -108 15 -55 24 59 10 137
13 182 7z m-323 -10 c0 -5 -11 -12 -25 -15 -31 -8 -54 2 -34 15 18 11 59 11
59 0z m370 -11 c0 -5 -4 -10 -9 -10 -6 0 -13 5 -16 10 -3 6 1 10 9 10 9 0 16
-4 16 -10z m1020 -85 c0 -19 -35 -33 -94 -39 -28 -2 -53 -12 -68 -26 -13 -12
-48 -34 -78 -48 -30 -15 -56 -30 -58 -34 -2 -5 -9 -8 -16 -8 -7 0 -23 -9 -36
-20 -16 -14 -37 -20 -72 -20 -64 0 -54 16 16 24 30 4 60 14 67 22 6 8 17 14
24 14 7 0 15 7 19 15 3 8 14 15 24 15 11 0 25 7 32 15 7 8 18 15 24 15 7 0 27
15 45 33 29 31 36 34 79 29 36 -3 51 0 61 12 17 20 31 21 31 1z m-994 -141
c16 -59 16 -69 3 -93 -8 -14 -21 -26 -29 -26 -12 0 -16 19 -18 93 -2 73 1 92
12 92 9 0 21 -25 32 -66z m-706 34 c0 -6 7 -19 15 -28 9 -10 13 -24 9 -35 -6
-14 -11 -10 -26 21 -20 41 -24 69 -8 59 6 -3 10 -11 10 -17z m601 -9 c14 -27
5 -104 -16 -136 -18 -27 -43 -30 -52 -7 -6 17 37 164 49 164 4 0 12 -10 19
-21z m599 -64 c10 -12 10 -19 2 -27 -17 -17 -15 -45 6 -65 11 -10 22 -26 25
-36 5 -14 3 -16 -12 -8 -32 18 -80 119 -66 141 9 15 31 12 45 -5z m-1200 -104
c0 -6 -13 -25 -30 -43 -22 -24 -30 -42 -30 -71 0 -23 -4 -36 -10 -32 -24 15
-4 80 37 123 7 7 13 18 13 23 0 5 5 9 10 9 6 0 10 -4 10 -9z m1280 -177 c0 -8
-4 -14 -10 -14 -5 0 -10 9 -10 21 0 11 5 17 10 14 6 -3 10 -13 10 -21z m-1311
-32 c0 -15 -4 -36 -9 -47 -6 -15 -9 -6 -9 33 -1 33 3 51 9 47 6 -3 10 -18 9
-33z m1334 -42 c3 -11 1 -20 -4 -20 -5 0 -9 9 -9 20 0 11 2 20 4 20 2 0 6 -9
9 -20z m-1363 -254 c0 -19 -4 -38 -10 -41 -6 -4 -10 10 -10 34 0 23 5 41 10
41 6 0 10 -15 10 -34z m1460 -62 c0 -13 -4 -24 -10 -24 -5 0 -10 14 -10 31 0
17 4 28 10 24 6 -3 10 -17 10 -31z m30 -100 c0 -14 -4 -22 -10 -19 -5 3 -10
17 -10 31 0 14 4 22 10 19 6 -3 10 -17 10 -31z m-1520 12 c0 -8 -4 -18 -10
-21 -5 -3 -10 3 -10 14 0 12 5 21 10 21 6 0 10 -6 10 -14z m1550 -77 c0 -10
-4 -19 -10 -19 -5 0 -10 12 -10 26 0 14 4 23 10 19 6 -3 10 -15 10 -26z
m-1551 -52 c0 -27 -2 -29 -9 -12 -12 28 -12 57 0 50 6 -3 10 -21 9 -38z m759
8 c4 -30 4 -30 -17 -11 -26 23 -28 49 -3 44 10 -2 18 -14 20 -33z m822 -53 c0
-17 -12 -41 -30 -60 -16 -18 -30 -37 -30 -42 0 -5 -4 -12 -10 -15 -23 -14 -8
34 20 61 21 20 30 39 30 62 0 20 4 31 10 27 6 -3 10 -18 10 -33z m-159 -23
c13 -20 10 -162 -4 -239 -15 -80 -39 -90 -48 -20 -4 25 -11 68 -17 95 -9 45
-16 139 -13 173 1 17 70 10 82 -9z m-200 -21 c10 -13 19 -27 19 -33 0 -5 7
-23 16 -40 25 -48 54 -128 54 -150 0 -25 -53 -92 -80 -100 -27 -9 -98 13 -109
33 -9 17 -16 141 -13 220 3 76 72 119 113 70z m-1241 -106 c0 -17 -25 -32 -52
-32 -15 0 -28 -4 -28 -10 0 -5 -20 -10 -44 -10 -25 0 -48 5 -51 10 -4 6 10 10
34 10 22 0 43 4 46 10 11 17 95 37 95 22z m441 -34 c31 -26 50 -91 47 -157
l-3 -64 -50 -13 c-68 -18 -69 -18 -104 12 -29 24 -31 30 -31 97 0 100 22 137
83 137 24 0 50 -6 58 -12z m-658 -17 c7 -29 74 -54 108 -42 23 8 30 6 42 -12
13 -19 18 -20 34 -9 56 38 99 37 105 -1 2 -17 10 -22 31 -22 33 1 33 -4 5 -58
-12 -23 -24 -55 -27 -71 -7 -34 -37 -58 -49 -39 -4 6 -20 16 -34 22 -17 6 -30
21 -34 36 -4 18 -11 24 -23 20 -10 -3 -32 2 -49 11 -44 21 -118 21 -143 -2
-10 -9 -29 -22 -42 -28 -12 -7 -31 -26 -42 -43 -11 -18 -28 -32 -37 -33 -21 0
-23 11 -5 29 8 9 8 15 2 17 -6 3 -31 15 -55 28 -39 20 -45 29 -48 59 -3 28 2
39 25 56 15 11 33 25 40 31 7 5 16 10 21 10 5 0 15 7 22 15 14 17 60 21 60 5
0 -5 -9 -10 -19 -10 -11 0 -26 -6 -33 -13 -7 -7 -30 -23 -51 -36 -43 -26 -64
-58 -49 -73 16 -16 115 -45 134 -40 10 2 25 20 34 39 9 18 25 38 35 44 11 5
19 16 19 24 0 21 -9 19 -36 -10 -19 -21 -30 -24 -66 -21 -24 2 -45 4 -48 5 -7
2 52 51 61 51 4 0 25 10 45 22 l38 22 -33 8 c-41 11 -30 28 18 28 30 0 40 -4
44 -19z m974 -23 c-3 -7 -5 -2 -5 12 0 14 2 19 5 13 2 -7 2 -19 0 -25z m70 0
c4 -7 25 -21 46 -30 20 -10 37 -22 37 -28 0 -15 -16 -12 -30 5 -7 8 -19 15
-28 15 -17 0 -52 28 -52 42 0 12 18 10 27 -4z m-102 -48 c-10 -11 -24 -20 -31
-20 -7 0 -17 -8 -23 -17 -5 -10 -12 -15 -16 -11 -7 7 30 48 44 48 5 0 14 7 21
15 7 9 15 13 18 10 3 -3 -3 -14 -13 -25z m-822 -155 c1 -5 -16 -11 -38 -13
-40 -2 -40 -2 -15 13 27 16 50 16 53 0z m3777 -16 c52 -11 110 -50 110 -74 0
-8 -7 -11 -20 -8 -13 3 -21 0 -21 -8 -4 -39 -7 -116 -8 -227 -1 -121 -17 -217
-46 -272 -12 -23 -29 -101 -58 -264 -10 -56 -9 -60 12 -78 13 -10 29 -18 37
-18 8 0 23 -8 34 -17 26 -22 118 -204 129 -255 10 -42 -3 -54 -13 -13 -5 18
-13 25 -31 25 -20 0 -33 12 -58 53 -17 29 -38 61 -44 72 -7 11 -27 49 -46 85
-18 36 -41 77 -51 92 -32 49 -59 172 -81 372 -8 74 -20 106 -39 106 -21 0 -27
-23 -38 -165 -6 -71 -15 -136 -20 -142 -14 -17 -35 -16 -45 2 -8 13 -11 13
-30 0 -33 -23 -43 -65 -26 -111 39 -108 14 -378 -41 -432 l-25 -26 -11 28
c-16 43 -12 194 7 261 9 33 18 80 19 105 1 24 7 46 13 48 17 6 13 27 -7 45
-23 21 -70 19 -97 -3 -11 -10 -45 -25 -75 -34 -55 -18 -93 -43 -85 -56 2 -4
27 -2 55 4 42 8 53 7 67 -6 23 -24 33 -104 20 -167 -10 -44 -19 -59 -53 -87
-23 -19 -48 -34 -57 -34 -9 0 -21 -9 -27 -20 -6 -11 -24 -27 -40 -35 -16 -8
-37 -29 -45 -45 l-15 -30 -21 21 c-34 34 -50 16 -64 -73 -4 -29 -13 -42 -35
-53 -55 -29 -73 -2 -90 135 -5 47 -15 118 -20 158 -13 90 5 170 46 213 38 40
58 37 86 -13 13 -22 28 -42 33 -42 6 -1 14 15 19 36 8 33 6 40 -23 77 -40 50
-64 52 -166 16 -38 -14 -78 -25 -88 -25 -27 0 -30 -22 -9 -76 25 -64 15 -86
-34 -71 -25 8 -37 7 -49 -3 -22 -18 -19 -27 14 -38 33 -12 51 -50 30 -63 -8
-5 -30 -9 -50 -9 -56 0 -64 -30 -32 -122 14 -40 29 -77 34 -83 14 -14 11 -25
-6 -25 -8 0 -15 9 -15 20 0 11 -7 20 -15 20 -8 0 -12 -6 -9 -14 3 -8 -4 -21
-16 -29 -20 -14 -21 -18 -10 -52 10 -30 9 -39 -2 -53 -8 -9 -18 -25 -21 -35
-5 -12 -15 -17 -29 -15 -18 2 -23 10 -25 37 -1 19 -10 46 -21 61 -14 19 -20
41 -19 72 2 35 -4 51 -25 76 -15 18 -29 40 -33 51 -9 29 -88 55 -146 48 -53
-7 -57 -3 -34 30 21 30 78 47 136 39 50 -7 123 7 147 29 7 6 20 40 28 76 9 35
21 70 27 77 5 7 17 25 26 41 24 44 95 133 127 160 26 23 35 24 124 22 52 -1
104 -2 115 -3 53 -1 138 21 174 45 51 34 155 163 213 264 25 43 67 116 94 163
59 103 133 194 177 217 57 30 132 38 207 22z m-3037 -29 c3 -11 1 -18 -4 -14
-5 3 -9 12 -9 20 0 20 7 17 13 -6z m357 10 c0 -5 -2 -10 -4 -10 -3 0 -8 5 -11
10 -3 6 -1 10 4 10 6 0 11 -4 11 -10z m-1302 -24 c16 -36 57 -60 88 -52 63 16
128 -22 87 -51 -43 -29 -45 -34 -38 -87 4 -28 14 -62 22 -75 15 -23 25 -121
15 -148 -5 -16 -51 -17 -102 -1 l-40 13 0 62 c0 37 -5 65 -12 69 -6 4 -14 2
-16 -4 -7 -21 -59 -14 -65 8 -4 16 -14 20 -49 21 -23 0 -37 3 -30 6 20 8 15
43 -7 43 -23 0 -38 50 -23 76 8 15 11 12 17 -14 8 -36 15 -39 37 -14 22 24 29
54 19 71 -8 12 -12 12 -25 2 -20 -17 -20 -3 0 38 15 30 17 31 33 17 25 -22 31
-20 42 14 13 36 32 39 47 6z m301 -18 c24 -66 35 -128 23 -140 -9 -9 -16 -8
-29 5 -10 10 -28 25 -41 35 -22 16 -22 20 -12 70 9 41 16 52 31 52 11 0 23
-10 28 -22z m579 -3 c15 -14 31 -25 37 -25 5 0 41 -29 78 -65 70 -65 119 -143
131 -209 4 -20 11 -36 16 -36 12 0 13 -60 2 -77 -4 -6 -20 -15 -35 -18 -26 -7
-27 -6 -27 38 0 25 5 49 10 52 17 11 11 37 -10 42 -11 3 -20 12 -20 21 0 12
-3 13 -12 4 -23 -23 -31 -12 -24 38 6 47 -5 69 -18 35 -3 -8 -12 -15 -20 -15
-16 0 -46 48 -46 75 0 8 -4 15 -10 15 -5 0 -10 -9 -10 -20 0 -11 -7 -20 -15
-20 -8 0 -15 6 -15 14 0 8 -13 19 -30 25 -23 7 -30 16 -30 35 0 33 -16 41 -45
22 -34 -23 -44 -20 -42 12 1 18 -3 27 -13 27 -9 0 -15 -9 -15 -24 0 -13 -6
-26 -12 -28 -21 -7 -15 46 8 78 19 26 26 29 80 29 50 0 64 -4 87 -25z m867 3
c2 -13 6 -44 9 -69 2 -25 8 -55 14 -65 15 -28 10 -156 -6 -162 -7 -2 -31 15
-54 39 l-41 43 6 75 c7 106 57 203 72 139z m-750 -18 c3 -5 2 -10 -4 -10 -5 0
-13 5 -16 10 -3 6 -2 10 4 10 5 0 13 -4 16 -10z m365 -31 c0 -6 -4 -7 -10 -4
-5 3 -10 11 -10 16 0 6 5 7 10 4 6 -3 10 -11 10 -16z m-305 -29 c3 -5 1 -10
-4 -10 -6 0 -11 5 -11 10 0 6 2 10 4 10 3 0 8 -4 11 -10z m335 0 c0 -5 -4 -10
-10 -10 -5 0 -10 5 -10 10 0 6 5 10 10 10 6 0 10 -4 10 -10z m2795 0 c3 -5 2
-10 -4 -10 -5 0 -13 5 -16 10 -3 6 -2 10 4 10 5 0 13 -4 16 -10z m-2358 -77
c-3 -10 -5 -2 -5 17 0 19 2 27 5 18 2 -10 2 -26 0 -35z m-1019 25 c-3 -7 -11
-13 -18 -13 -7 0 -15 6 -17 13 -3 7 4 12 17 12 13 0 20 -5 18 -12z m-178 -42
c5 -13 14 -27 20 -31 6 -3 22 -29 35 -56 22 -42 24 -57 19 -106 -7 -60 -25
-97 -50 -107 -20 -8 -54 50 -54 90 0 17 -7 37 -15 44 -22 18 -21 147 2 172 22
24 32 23 43 -6z m490 4 c0 -5 -4 -10 -10 -10 -5 0 -10 5 -10 10 0 6 5 10 10
10 6 0 10 -4 10 -10z m3217 -85 c8 -16 22 -43 30 -60 54 -100 90 -239 97 -375
6 -102 5 -112 -7 -90 -8 14 -18 52 -21 85 -14 119 -87 374 -121 420 -21 29
-55 93 -55 103 0 13 64 -56 77 -83z m-2917 31 c0 -3 -4 -8 -10 -11 -5 -3 -10
-1 -10 4 0 6 5 11 10 11 6 0 10 -2 10 -4z m-490 -41 c13 -14 18 -25 12 -25 -7
0 -12 5 -12 11 0 7 -11 9 -30 6 -25 -6 -30 -3 -30 13 0 28 31 25 60 -5z m-507
-30 c-40 -31 -58 -10 -21 25 20 18 23 18 31 4 6 -11 3 -20 -10 -29z m952 20
c-16 -13 -33 -24 -37 -25 -5 0 -8 -7 -8 -15 0 -8 -4 -15 -10 -15 -18 0 -11 15
21 48 17 18 39 32 48 32 11 0 7 -8 -14 -25z m-1429 -10 c4 -8 12 -15 20 -15
18 0 18 -20 -1 -47 -27 -39 -73 4 -55 52 11 28 28 33 36 10z m-85 -42 c20 -6
25 -38 10 -62 -14 -22 -41 27 -40 74 1 25 3 31 6 16 3 -13 13 -26 24 -28z
m499 32 c6 -8 9 -19 6 -24 -4 -6 -9 -38 -12 -73 -4 -53 -9 -67 -32 -85 -15
-13 -29 -23 -32 -23 -3 0 -19 14 -37 30 -28 27 -31 34 -22 57 5 15 7 38 4 52
-7 35 3 47 50 64 53 19 60 20 75 2z m1480 -32 c0 -10 -5 -25 -10 -33 -7 -11
-10 -7 -10 18 0 17 5 32 10 32 6 0 10 -8 10 -17z m-843 -35 c-3 -8 -6 -5 -6 6
-1 11 2 17 5 13 3 -3 4 -12 1 -19z m-1007 -47 c0 -10 -22 -31 -32 -31 -9 0
-11 34 -2 43 7 7 34 -2 34 -12z m1820 -11 c0 -11 -4 -20 -10 -20 -5 0 -10 9
-10 20 0 11 5 20 10 20 6 0 10 -9 10 -20z m-30 -72 c0 -18 -5 -40 -10 -48 -7
-11 -10 -2 -10 33 0 26 5 47 10 47 6 0 10 -15 10 -32z m-1878 0 c6 -17 -3 -58
-12 -58 -6 0 -30 52 -30 66 0 10 39 2 42 -8z m628 5 c0 -5 -7 -26 -15 -48 -8
-22 -14 -57 -15 -77 0 -21 -3 -38 -7 -38 -11 0 -53 42 -53 53 0 6 16 29 35 53
19 23 35 47 35 53 0 6 5 11 10 11 6 0 10 -3 10 -7z m-416 -24 c-3 -5 -10 -7
-15 -3 -5 3 -7 10 -3 15 3 5 10 7 15 3 5 -3 7 -10 3 -15z m986 -31 c0 -10 -5
-18 -10 -18 -15 0 -23 27 -16 47 6 15 8 15 16 3 6 -8 10 -23 10 -32z m-900
-17 c0 -30 -26 -46 -51 -30 -19 12 5 59 31 59 15 0 20 -7 20 -29z m188 7 c1
-8 -9 -20 -23 -26 -29 -13 -29 -12 -13 23 12 27 31 29 36 3z m767 2 c3 -5 -1
-10 -9 -10 -9 0 -16 5 -16 10 0 6 4 10 9 10 6 0 13 -4 16 -10z m-1271 -105 c7
-5 20 -24 29 -41 9 -17 23 -36 31 -43 9 -8 16 -18 16 -23 0 -14 -61 1 -82 19
-14 13 -20 13 -33 3 -21 -17 -20 5 2 95 16 62 18 66 21 35 2 -19 9 -39 16 -45z
m226 47 c0 -4 -9 -13 -20 -20 -16 -10 -20 -10 -20 2 0 8 6 17 13 19 19 8 27 8
27 -1z m210 -1 c0 -11 -25 -21 -55 -21 -25 0 -39 12 -28 24 10 9 83 7 83 -3z
m-2339 -32 c45 -24 47 -105 3 -152 -31 -33 -54 -34 -88 -2 -70 65 3 198 85
154z m3027 -26 c-4 -31 -23 -42 -30 -16 -7 25 1 43 18 43 11 0 14 -8 12 -27z
m-3194 -2 c21 -23 24 -104 5 -127 -7 -8 -25 -22 -39 -29 -23 -12 -30 -12 -49
1 -27 20 -54 82 -46 112 14 58 92 84 129 43z m330 -7 c9 -8 16 -26 16 -40 0
-26 9 -31 27 -13 15 15 34 3 26 -17 -3 -9 4 -24 16 -35 24 -23 25 -29 9 -63
-13 -29 -38 -40 -68 -31 -15 5 -20 15 -20 41 0 35 -16 46 -26 19 -10 -26 -34
-17 -34 13 0 15 -7 36 -15 46 -21 28 -19 52 7 76 26 24 41 25 62 4z m3572 -11
c-10 -10 -19 5 -10 18 6 11 8 11 12 0 2 -7 1 -15 -2 -18z m-596 -13 c0 -5 -9
-10 -20 -10 -11 0 -20 5 -20 10 0 6 9 10 20 10 11 0 20 -4 20 -10z m555 -35
c-10 -5 -27 -18 -37 -27 -19 -19 -38 -24 -38 -10 0 11 38 46 65 60 26 14 36
-8 10 -23z m-1623 -30 c-3 -24 1 -41 10 -46 20 -13 56 -11 61 4 4 9 7 9 18 0
10 -10 9 -16 -4 -31 -24 -26 -22 -69 4 -83 25 -13 43 0 44 33 0 12 5 23 11 25
8 3 11 -13 11 -47 -1 -45 3 -53 34 -80 30 -26 32 -31 18 -42 -16 -13 -42 -64
-53 -104 -4 -11 -22 -28 -42 -37 -22 -11 -39 -28 -46 -47 -13 -40 -24 -38 -38
8 -7 20 -23 48 -36 62 -18 19 -23 36 -21 62 1 21 -2 38 -8 40 -5 2 -11 -14
-13 -35 -2 -22 -10 -41 -18 -44 -8 -3 -14 -16 -14 -30 0 -13 -6 -31 -14 -39
-8 -7 -16 -19 -18 -26 -7 -21 -38 0 -38 26 0 14 -4 28 -10 31 -6 4 -10 56 -10
123 0 122 -6 147 -32 137 -23 -9 -32 25 -11 41 10 7 23 14 30 14 7 0 17 9 23
20 13 24 58 27 66 5 4 -9 -5 -26 -20 -42 -27 -27 -29 -34 -20 -69 5 -19 9 -16
51 25 56 57 69 87 48 111 -20 22 -19 57 3 69 28 16 37 7 34 -34z m-2428 -19
c27 -39 36 -61 31 -75 -3 -12 -12 -21 -18 -21 -20 0 -57 30 -57 46 0 8 -11 19
-24 23 -29 12 -39 46 -19 66 26 27 49 17 87 -39z m2730 38 c11 -28 7 -43 -15
-54 -27 -15 -32 -9 -24 34 7 37 28 48 39 20z m116 -75 c0 -24 -23 -21 -28 4
-2 10 3 17 12 17 10 0 16 -9 16 -21z m-168 -6 c1 -4 9 -26 19 -47 9 -22 15
-45 12 -53 -8 -20 -43 -16 -43 5 0 10 -7 27 -15 38 -20 26 -19 51 2 63 18 10
24 9 25 -6z m1248 -72 c-52 -52 -65 -61 -58 -39 8 22 103 113 106 102 2 -7
-20 -35 -48 -63z m-457 34 c-8 -22 -22 -18 -16 5 3 11 9 17 14 15 4 -3 6 -12
2 -20z m-63 -5 c0 -5 -4 -10 -10 -10 -5 0 -10 5 -10 10 0 6 5 10 10 10 6 0 10
-4 10 -10z m-2600 -79 c26 -111 -36 -211 -132 -211 -56 0 -67 -13 -41 -48 58
-79 23 -209 -61 -228 -17 -4 -36 -14 -43 -23 -7 -10 -26 -16 -50 -16 l-38 0 3
-57 c3 -49 0 -62 -23 -92 -71 -94 -243 -80 -296 24 -15 30 -17 42 -7 78 10 41
9 45 -18 73 -27 28 -31 29 -89 23 -98 -10 -105 -3 -105 114 0 129 -4 140 -49
148 -75 13 -131 82 -131 161 0 46 14 74 24 48 3 -9 6 -26 6 -37 0 -49 76 -143
124 -154 53 -11 56 -18 56 -124 0 -54 3 -105 6 -114 9 -24 89 -21 121 4 34 26
39 25 46 -8 12 -59 101 -80 128 -30 11 20 11 20 35 -3 23 -21 28 -22 77 -12
28 6 58 8 65 4 25 -14 78 0 87 22 8 17 17 21 38 19 62 -8 98 52 83 134 -5 25
-16 41 -37 52 -47 27 -33 45 44 58 57 10 72 17 98 45 16 18 34 50 40 71 10 41
2 138 -12 138 -5 0 -9 5 -9 10 0 6 11 3 24 -5 16 -11 28 -33 36 -64z m-359 19
c30 -10 78 -30 106 -44 28 -14 64 -26 80 -26 31 0 64 28 77 65 7 19 8 19 17 2
15 -26 2 -72 -31 -107 -28 -30 -32 -31 -101 -28 -69 2 -73 1 -96 -27 l-24 -30
-20 24 c-18 22 -18 25 -4 48 13 20 14 27 4 39 -10 13 -10 17 0 23 7 5 11 17 9
27 -3 18 -14 19 -147 19 -104 0 -145 3 -148 12 -12 35 181 37 278 3z m2980 -3
c-8 -8 -11 -7 -11 4 0 20 13 34 18 19 3 -7 -1 -17 -7 -23z m159 8 c0 -8 -8
-15 -17 -15 -10 0 -28 -3 -40 -6 -37 -10 -27 14 10 25 45 13 47 13 47 -4z
m-935 -15 c3 -5 2 -10 -4 -10 -5 0 -13 5 -16 10 -3 6 -2 10 4 10 5 0 13 -4 16
-10z m2353 -25 c5 -34 -20 -57 -51 -50 -32 8 -33 17 -9 51 20 28 56 28 60 -1z
m-5088 -45 c16 0 55 11 86 25 31 14 60 25 65 25 5 0 9 -25 9 -56 0 -47 -3 -55
-16 -50 -9 3 -54 6 -100 6 -77 0 -87 2 -109 25 -16 15 -25 35 -25 55 l0 32 31
-31 c20 -20 40 -31 59 -31z m3564 19 c-9 -10 -23 -19 -31 -19 -7 0 -13 -4 -13
-10 0 -5 -5 -10 -12 -10 -7 0 6 18 27 40 39 39 65 39 29 -1z m-74 21 c0 -5 -4
-10 -10 -10 -5 0 -10 5 -10 10 0 6 5 10 10 10 6 0 10 -4 10 -10z m448 -15 c-6
-13 -20 -27 -30 -31 -22 -7 -17 -34 13 -73 11 -13 19 -34 19 -46 0 -13 7 -26
16 -29 13 -5 14 -14 9 -48 -7 -39 -6 -42 10 -28 15 13 17 11 15 -20 -3 -51 -2
-54 17 -39 15 13 16 11 11 -22 -8 -44 5 -70 20 -44 9 17 10 17 17 -4 4 -12 2
-28 -4 -35 -6 -8 -8 -22 -4 -31 6 -16 7 -15 15 6 8 21 10 22 19 7 15 -27 0
-67 -32 -83 -31 -17 -33 -15 -44 35 -11 51 -63 170 -80 182 -13 10 -37 10 -54
-1 -11 -7 -8 -23 13 -86 14 -42 26 -84 26 -92 0 -29 -31 -73 -56 -79 -39 -10
-56 14 -59 86 -2 33 -5 63 -8 66 -3 3 -32 -8 -64 -25 -68 -36 -73 -37 -73 -11
0 27 73 64 111 56 27 -5 29 -4 29 28 0 19 -11 73 -25 120 -14 47 -25 92 -25
100 0 20 107 28 142 11 35 -17 46 -2 20 25 -14 15 -26 19 -45 15 -14 -4 -28
-2 -31 4 -10 16 12 51 33 51 10 0 31 13 47 30 36 36 47 38 32 5z m-481 -27
c-3 -8 -6 -5 -6 6 -1 11 2 17 5 13 3 -3 4 -12 1 -19z m-1147 -29 c0 -16 -4
-29 -9 -29 -11 0 -21 38 -14 56 8 22 23 6 23 -27z m528 13 c2 -7 -6 -12 -17
-12 -21 0 -27 11 -14 24 9 9 26 2 31 -12z m636 -11 c3 -5 -2 -42 -11 -84 -16
-74 -16 -75 5 -102 12 -15 22 -40 22 -56 0 -22 5 -29 31 -34 37 -8 33 -30 -7
-30 -21 0 -30 5 -32 20 -2 11 -14 29 -26 40 -31 28 -53 99 -37 119 7 8 11 20
10 28 -2 12 2 35 18 91 5 18 18 23 27 8z m-604 -74 c0 -7 -9 -23 -21 -35 -11
-12 -26 -37 -33 -54 -13 -29 -12 -35 13 -72 14 -23 29 -42 34 -44 12 -6 8 -30
-9 -46 -12 -12 -20 -14 -36 -5 -40 21 -108 -8 -108 -47 0 -4 29 -4 65 -2 69 6
78 -1 53 -41 -16 -25 -3 -51 31 -64 29 -11 29 -11 8 -22 -14 -6 -30 -33 -43
-70 -12 -33 -27 -60 -33 -59 -6 1 -15 2 -20 3 -5 0 -11 19 -15 41 -7 42 -36
58 -36 20 0 -18 -4 -20 -33 -15 -24 5 -37 2 -46 -9 -33 -40 -43 29 -11 72 18
24 29 28 77 30 65 3 73 6 73 32 0 24 -60 38 -96 21 -14 -6 -29 -11 -34 -11
-17 0 -11 36 10 63 11 14 20 32 20 41 0 9 15 31 34 49 37 37 53 72 36 82 -7 4
-25 -5 -41 -20 -33 -32 -36 -29 -42 57 -4 62 2 69 75 83 19 4 48 17 64 30 30
24 64 19 64 -8z m-2589 -123 c-2 -111 -7 -136 -22 -113 -21 32 -3 246 19 225
2 -3 4 -53 3 -112z m184 106 c3 -6 9 -60 12 -120 4 -95 3 -111 -11 -116 -36
-14 -46 14 -46 120 0 66 4 106 12 114 15 15 25 15 33 2z m3155 -9 c0 -20 -39
-101 -62 -128 -10 -12 -13 -12 -20 2 -7 11 1 34 27 80 36 66 55 81 55 46z
m-3060 -5 c0 -8 -4 -17 -9 -21 -12 -7 -24 12 -16 25 9 15 25 12 25 -4z m2423
-2 c11 -12 -13 -43 -28 -38 -22 9 -19 44 3 44 10 0 22 -3 25 -6z m-2883 -29
c0 -8 -4 -15 -10 -15 -5 0 -10 7 -10 15 0 8 5 15 10 15 6 0 10 -7 10 -15z
m548 -123 c-2 -11 -13 -17 -33 -17 -25 0 -31 -4 -33 -27 -3 -29 -25 -37 -38
-16 -8 13 -6 156 2 170 9 14 106 -90 102 -110z m-466 56 c-13 -13 -26 8 -17
30 6 16 7 16 17 -1 7 -13 7 -22 0 -29z m2298 28 c0 -7 -7 -19 -15 -26 -20 -16
-38 -1 -29 23 7 20 44 23 44 3z m4160 -31 c0 -28 -15 -34 -24 -9 -10 25 -7 34
9 34 9 0 15 -9 15 -25z m-4283 -52 c-3 -10 -5 -4 -5 12 0 17 2 24 5 18 2 -7 2
-21 0 -30z m-2251 12 c4 -8 3 -23 0 -32 -6 -15 -8 -15 -22 -2 -8 9 -12 23 -8
32 8 21 23 22 30 2z m4715 -4 c0 -3 2 -25 5 -49 2 -24 0 -51 -5 -60 -15 -28
-17 -85 -4 -89 20 -7 45 68 47 137 1 63 2 65 28 68 38 5 50 -22 38 -91 -5 -31
-14 -66 -20 -77 -6 -12 -8 -35 -5 -51 4 -17 4 -46 1 -65 -5 -26 -13 -35 -34
-40 -39 -10 -51 -22 -57 -60 -3 -19 -7 -50 -10 -69 -5 -26 -11 -35 -25 -35
-11 0 -21 6 -22 13 0 6 -2 17 -2 23 -1 6 -14 25 -29 43 -15 18 -27 38 -27 45
0 6 -5 17 -11 23 -11 11 -57 -13 -94 -51 -13 -12 -36 -16 -110 -16 l-93 0 -17
36 c-9 19 -27 40 -39 45 -13 6 -31 24 -40 40 -18 30 -61 58 -72 46 -4 -3 -9
-21 -13 -39 -6 -25 -12 -32 -27 -30 -34 6 -46 25 -35 55 6 15 15 27 20 27 6 0
24 14 41 30 17 17 39 30 50 30 10 0 39 -23 64 -52 39 -45 47 -50 61 -38 14 11
24 11 66 -4 80 -29 191 -7 258 53 37 32 42 43 51 103 13 82 28 118 46 111 8
-3 14 -8 15 -12z m-2321 -5 c0 -8 -4 -17 -10 -21 -12 -7 -1 -36 19 -52 14 -10
14 -15 3 -33 -12 -19 -10 -24 8 -40 12 -10 34 -22 50 -25 27 -6 28 -7 14 -33
-9 -17 -12 -41 -9 -63 5 -31 2 -41 -26 -68 -22 -23 -32 -41 -31 -62 1 -47 -23
-34 -35 18 -13 55 -4 80 32 89 32 8 32 33 0 85 -43 67 -94 70 -96 5 -1 -26 -3
-23 -11 17 -9 43 -8 50 10 67 17 17 19 25 11 52 -8 30 -6 35 18 55 32 26 53
29 53 9z m460 -15 c0 -6 -4 -13 -10 -16 -5 -3 -10 1 -10 9 0 9 5 16 10 16 6 0
10 -4 10 -9z m-570 -73 c-1 -26 -3 -30 -10 -16 -6 9 -7 23 -4 32 9 25 14 19
14 -16z m1190 11 c0 -6 -4 -7 -10 -4 -5 3 -10 11 -10 16 0 6 5 7 10 4 6 -3 10
-11 10 -16z m-40 -39 c5 0 10 -7 10 -15 0 -18 31 -35 64 -35 28 0 42 -31 34
-75 -3 -14 1 -30 8 -36 15 -12 19 -59 6 -59 -4 0 -17 7 -29 15 -12 8 -37 14
-55 13 -32 -3 -33 -2 -30 31 3 27 -2 39 -27 62 -33 30 -40 59 -17 78 7 6 12
23 9 39 -3 25 -3 26 6 5 6 -13 15 -23 21 -23z m3041 -69 c-6 -11 -11 -28 -11
-39 0 -10 -14 -47 -31 -81 l-32 -63 27 -25 c16 -15 25 -31 22 -40 -3 -8 -6
-18 -6 -22 0 -3 -21 -13 -46 -20 -45 -13 -47 -13 -64 9 -11 15 -19 19 -24 11
-9 -14 -43 -15 -51 -1 -3 5 1 25 10 44 13 27 28 38 68 52 48 18 51 21 52 54 1
19 12 54 23 77 12 23 22 47 22 54 0 6 10 28 23 48 l22 36 3 -37 c2 -20 -2 -46
-7 -57z m-3370 57 c10 -13 18 -26 19 -29 0 -10 -45 -37 -74 -45 -32 -8 -36 14
-6 41 11 10 20 26 20 37 0 25 18 23 41 -4z m166 -50 c4 -7 8 -33 9 -58 0 -25
4 -86 8 -136 7 -75 6 -95 -8 -122 -18 -36 -27 -35 -93 10 -36 24 -43 34 -43
61 1 18 7 43 15 57 20 35 18 64 -5 85 -20 18 -21 18 -49 -3 -30 -22 -41 -20
-41 7 1 31 29 53 107 81 93 34 90 33 100 18z m1737 6 c10 -4 16 -18 16 -40 0
-41 -17 -45 -26 -6 -3 15 -7 33 -10 40 -4 14 -2 14 20 6z m-4171 -54 c3 -10
-1 -27 -9 -37 -20 -27 -17 -49 12 -70 21 -16 28 -30 32 -72 6 -71 -13 -131
-44 -131 -30 0 -38 26 -19 63 20 40 19 54 -5 67 -17 9 -20 7 -26 -17 -4 -16
-11 -33 -16 -40 -6 -7 -3 -30 8 -61 15 -43 16 -53 4 -66 -9 -12 -16 -14 -24
-6 -17 17 -24 12 -28 -17 -2 -22 -8 -28 -28 -28 -14 0 -39 -14 -59 -33 -24
-23 -42 -32 -60 -30 -29 3 -39 36 -45 152 -5 87 -4 85 -18 62 -6 -11 -13 -65
-15 -120 -5 -100 -18 -137 -42 -122 -6 4 -11 37 -11 75 0 37 -5 72 -12 79 -8
8 -8 15 1 26 7 8 10 20 6 26 -10 16 -25 12 -25 -9 0 -10 -7 -35 -15 -55 -11
-25 -13 -52 -9 -89 5 -41 3 -55 -10 -66 -13 -11 -17 -11 -22 3 -6 16 -8 16
-25 0 -22 -20 -49 -12 -56 16 -7 27 -17 25 -33 -5 -41 -78 -130 -12 -130 96 0
40 -1 41 -18 26 -10 -10 -26 -17 -35 -17 -19 0 -23 -15 -7 -25 14 -9 13 -15
-10 -53 -17 -28 -23 -32 -35 -22 -8 7 -15 27 -15 44 0 18 -5 37 -12 44 -9 9
-9 15 0 24 7 7 12 23 12 37 l0 25 -16 -22 c-8 -12 -23 -21 -32 -20 -17 3 -18
-2 -21 -60 -1 -12 -8 -25 -17 -29 -27 -10 -42 22 -39 85 1 31 0 41 -2 22 -10
-75 -62 -92 -112 -35 -25 29 -31 45 -32 83 0 37 -2 42 -9 26 -11 -28 -22 -34
-48 -28 -25 7 -54 72 -42 94 5 8 17 15 27 15 19 0 20 3 8 90 -11 92 37 137 76
70 12 -19 30 -40 42 -46 19 -11 20 -18 14 -125 -5 -92 -4 -114 7 -114 16 0 26
43 26 110 0 57 19 79 53 62 12 -6 34 -13 49 -16 15 -4 36 -15 47 -27 15 -16
26 -19 55 -14 33 7 39 4 72 -31 29 -32 37 -36 44 -24 5 8 10 18 10 21 0 3 12
11 26 18 24 11 29 9 62 -29 l36 -40 11 33 c10 30 13 32 60 32 28 0 60 6 72 12
12 7 39 14 60 16 21 2 57 14 81 26 24 12 51 21 61 19 11 -2 29 10 44 28 17 20
40 34 62 38 24 5 35 12 35 24 0 25 37 82 54 82 7 0 16 -9 19 -20z m2815 4 c-4
-23 -32 -39 -52 -31 -14 6 -14 10 -4 27 16 25 61 28 56 4z m319 -31 c-3 -10
-5 -4 -5 12 0 17 2 24 5 18 2 -7 2 -21 0 -30z m2319 23 c24 -18 13 -30 -41
-45 -52 -14 -65 0 -32 33 30 30 45 32 73 12z m-2326 -55 c0 -5 -7 -17 -16 -26
-13 -12 -20 -13 -28 -5 -8 8 -6 15 8 26 23 16 36 18 36 5z m1650 -41 c0 -28
-25 -70 -42 -70 -15 0 -4 100 13 111 17 10 29 -7 29 -41z m-3260 1 c0 -6 -4
-13 -10 -16 -5 -3 -10 1 -10 9 0 9 5 16 10 16 6 0 10 -4 10 -9z m680 -1 c0 -5
-5 -10 -11 -10 -5 0 -7 5 -4 10 3 6 8 10 11 10 2 0 4 -4 4 -10z m-140 -8 c0
-13 -12 -22 -22 -16 -10 6 -1 24 13 24 5 0 9 -4 9 -8z m71 -42 c10 0 19 6 22
13 2 6 7 10 10 7 8 -7 -56 -80 -71 -80 -14 0 -14 5 -6 49 5 23 10 29 17 22 6
-6 19 -11 28 -11z m989 -6 c0 -14 -4 -23 -10 -19 -5 3 -10 15 -10 26 0 10 5
19 10 19 6 0 10 -12 10 -26z m-1450 -44 c0 -16 -12 -40 -21 -40 -15 0 -40 47
-33 63 5 15 8 15 30 0 13 -8 24 -19 24 -23z m1060 24 c0 -8 -4 -12 -10 -9 -5
3 -10 10 -10 16 0 5 5 9 10 9 6 0 10 -7 10 -16z m-70 -16 c0 -7 -4 -19 -9 -27
-8 -12 -12 -12 -25 -2 -24 20 -19 41 9 41 14 0 25 -6 25 -12z m490 -39 c0 -10
-4 -19 -10 -19 -5 0 -10 12 -10 26 0 14 4 23 10 19 6 -3 10 -15 10 -26z
m-1643 -46 c-3 -10 -5 -4 -5 12 0 17 2 24 5 18 2 -7 2 -21 0 -30z m254 -25
c18 -35 19 -44 8 -70 -12 -29 -11 -32 14 -50 22 -16 27 -27 27 -64 0 -43 -15
-59 -26 -29 -10 25 -24 17 -24 -15 0 -26 -5 -31 -30 -37 -17 -3 -33 -10 -36
-14 -8 -13 -34 -11 -34 3 0 6 9 21 20 33 18 19 18 25 7 56 -19 54 -47 62 -47
13 0 -14 -6 -27 -14 -30 -8 -3 -17 -16 -20 -30 -9 -33 -26 -30 -26 5 0 16 -6
31 -15 35 -23 9 -18 35 10 48 27 12 34 38 11 38 -13 0 -65 -36 -78 -54 -4 -6
-10 -7 -14 -4 -3 4 1 14 10 23 9 9 16 22 16 28 0 7 22 22 49 34 41 19 53 21
81 12 59 -21 107 26 64 62 -12 10 -20 10 -34 2 -25 -16 -85 -26 -109 -18 -14
4 -21 15 -21 31 0 23 13 30 50 25 32 -5 94 0 109 9 21 11 28 6 52 -42z m177
10 c17 -17 15 -25 -8 -31 -23 -6 -33 5 -24 27 7 19 16 20 32 4z m175 -7 c6
-24 -19 -62 -69 -105 -36 -30 -42 -32 -59 -20 -10 8 -31 14 -47 14 -45 0 -32
17 17 22 52 6 112 47 121 83 7 30 30 33 37 6z m2604 -19 c15 -9 63 -80 63 -92
0 -5 -12 -9 -27 -9 -16 0 -48 -3 -72 -7 -81 -12 -120 39 -69 93 22 23 79 32
105 15z m-3242 -88 c-20 -19 -40 -33 -43 -29 -4 4 8 20 26 36 17 16 32 37 32
47 0 30 15 36 18 8 3 -20 -6 -36 -33 -62z m1319 67 c10 -11 32 -21 49 -23 17
-2 32 -8 34 -14 5 -15 -63 -12 -79 4 -18 18 -74 14 -118 -8 -35 -18 -40 -25
-40 -55 0 -19 -4 -35 -10 -35 -5 0 -10 -9 -10 -20 0 -24 -46 -68 -80 -77 -47
-12 -118 -67 -125 -96 -9 -39 -27 -43 -78 -18 -50 24 -123 27 -151 6 -11 -8
-25 -15 -31 -15 -12 0 -63 39 -109 83 -48 47 -20 43 40 -7 60 -49 75 -54 94
-31 16 19 128 19 148 -1 20 -21 35 -17 67 16 16 17 34 30 41 30 6 0 27 13 45
30 19 16 41 30 50 30 9 0 32 16 52 35 32 31 37 42 37 80 0 35 5 48 26 64 15
12 38 21 53 21 14 0 33 5 41 10 22 14 35 12 54 -9z m-909 -20 c6 -11 -15 -61
-26 -61 -11 0 -29 34 -29 54 0 17 45 23 55 7z m1265 -39 c0 -23 -63 -70 -101
-76 -35 -6 -48 -3 -81 20 -21 15 -36 29 -34 32 3 2 26 -3 52 -12 59 -20 100
-20 108 -1 3 8 12 15 21 15 8 0 15 7 15 15 0 8 5 15 10 15 6 0 10 -4 10 -8z
m-4165 -62 c3 -5 -3 -10 -14 -10 -12 0 -21 5 -21 10 0 6 6 10 14 10 8 0 18 -4
21 -10z m2432 -32 c-3 -7 -5 -2 -5 12 0 14 2 19 5 13 2 -7 2 -19 0 -25z m602
-55 c1 -7 -3 -13 -9 -13 -5 0 -10 17 -9 38 1 33 2 34 9 12 4 -14 8 -31 9 -37z
m-578 -65 c12 -12 34 -18 66 -18 52 0 83 -12 64 -25 -7 -4 -35 -4 -64 0 -40 6
-58 14 -79 38 -30 33 -32 39 -20 51 4 4 9 0 11 -11 2 -10 11 -26 22 -35z
m-2071 32 c0 -5 -9 -10 -20 -10 -11 0 -20 5 -20 10 0 6 9 10 20 10 11 0 20 -4
20 -10z m2501 -8 c-16 -30 -74 -72 -99 -72 -34 0 -23 22 16 32 18 5 32 13 32
18 0 6 6 10 14 10 8 0 16 7 20 15 3 8 10 15 16 15 7 0 8 -6 1 -18z m-216 -62
c3 -5 -3 -10 -15 -10 -12 0 -18 5 -15 10 3 6 10 10 15 10 5 0 12 -4 15 -10z"/>
<path d="M5564 7276 c-63 -66 -86 -125 -88 -221 -1 -114 22 -175 93 -245 77
-76 127 -92 301 -98 148 -5 170 -13 170 -63 0 -43 -32 -59 -117 -59 -64 0 -74
-3 -84 -21 -14 -27 -6 -99 13 -110 7 -5 47 -9 89 -9 45 0 80 -5 87 -12 17 -17
15 -93 -2 -107 -8 -6 -49 -14 -92 -16 -90 -5 -104 -16 -104 -76 0 -60 17 -69
131 -69 121 0 148 11 188 81 33 58 41 50 41 -39 1 -92 43 -164 106 -181 40
-10 40 -30 3 -90 -39 -62 -54 -161 -25 -161 10 0 23 15 32 35 87 209 414 212
504 4 26 -62 45 -54 44 20 -1 63 -44 134 -106 175 -53 35 -59 53 -23 62 32 8
44 30 43 82 0 51 -13 68 -58 79 l-35 9 -5 295 -5 294 -48 3 c-27 2 -55 -2 -63
-9 -12 -9 -14 -73 -14 -375 0 -354 -1 -364 -20 -374 -29 -15 -36 9 -21 72 16
71 15 660 -1 676 -7 7 -31 12 -55 12 -32 0 -45 -5 -53 -19 -6 -12 -10 -124
-10 -294 0 -221 -3 -277 -14 -286 -11 -9 -34 -8 -48 3 -1 0 -4 134 -7 296 l-6
295 -55 0 -55 0 -6 -200 c-3 -110 -6 -202 -7 -204 -4 -8 -62 85 -62 100 0 9 9
36 20 60 24 55 25 100 3 163 -28 77 -42 82 -256 88 -194 6 -232 14 -274 59
-30 33 -47 79 -29 79 7 0 25 -9 39 -20 64 -51 53 -50 901 -50 539 0 803 4 830
11 22 6 57 22 77 35 48 30 62 31 54 2 -10 -36 -72 -85 -123 -98 -25 -6 -102
-14 -170 -17 -114 -6 -127 -8 -154 -32 -41 -33 -58 -79 -59 -150 -1 -74 27
-129 85 -168 86 -57 102 -85 76 -134 -15 -26 -43 -24 -79 7 -46 39 -60 27 -63
-53 -3 -67 -4 -68 -32 -71 -16 -2 -32 2 -37 10 -5 7 -9 140 -9 295 l0 283 -23
6 c-13 3 -41 4 -63 2 l-39 -3 -6 -365 c-5 -321 -4 -366 9 -377 10 -8 48 -13
103 -13 104 0 125 12 114 67 -8 42 9 50 71 33 117 -33 206 56 206 205 0 99
-23 141 -112 206 -73 54 -85 70 -70 98 8 15 28 19 131 24 114 5 127 8 187 39
111 57 162 149 162 295 0 99 -22 162 -78 225 -65 71 -98 63 -62 -16 13 -29 20
-66 20 -105 0 -52 -4 -65 -33 -103 -60 -80 -29 -77 -877 -77 -440 -1 -769 3
-804 9 -68 11 -118 50 -137 108 -15 45 -8 138 14 181 22 44 21 51 -5 51 -12 0
-39 -19 -64 -44z"/>
<path d="M6490 5883 c-30 -15 -35 -23 -35 -53 0 -30 5 -38 35 -53 67 -35 180
-2 180 53 0 55 -113 88 -180 53z"/>
<path d="M5401 5774 c0 -11 3 -14 6 -6 3 7 2 16 -1 19 -3 4 -6 -2 -5 -13z"/>
<path d="M5330 5611 c0 -6 5 -13 10 -16 6 -3 10 1 10 9 0 9 -4 16 -10 16 -5 0
-10 -4 -10 -9z"/>
<path d="M4925 5069 c-4 -6 -5 -12 -3 -14 7 -7 48 7 48 16 0 13 -37 11 -45 -2z"/>
<path d="M5005 5070 c3 -5 8 -10 11 -10 2 0 4 5 4 10 0 6 -5 10 -11 10 -5 0
-7 -4 -4 -10z"/>
<path d="M4860 5015 c0 -8 5 -15 10 -15 6 0 10 7 10 15 0 8 -4 15 -10 15 -5 0
-10 -7 -10 -15z"/>
<path d="M5170 5006 c0 -12 60 -69 67 -63 3 4 -3 16 -15 27 -12 12 -22 25 -22
30 0 6 -7 10 -15 10 -8 0 -15 -2 -15 -4z"/>
<path d="M5166 4672 c-15 -8 -46 -17 -68 -19 -39 -6 -48 -25 -14 -31 19 -4 83
24 104 45 20 20 12 22 -22 5z"/>
<path d="M4773 4653 c9 -2 25 -2 35 0 9 3 1 5 -18 5 -19 0 -27 -2 -17 -5z"/>
<path d="M4980 4650 c20 -13 50 -13 50 0 0 6 -15 10 -32 10 -25 0 -29 -3 -18
-10z"/>
<path d="M4667 4612 c-20 -22 -13 -32 20 -32 18 0 23 5 23 25 0 30 -20 33 -43
7z"/>
<path d="M3387 2693 c-14 -13 -6 -24 15 -21 27 4 36 28 11 28 -11 0 -23 -3
-26 -7z"/>
<path d="M3120 2290 c-14 -10 -21 -22 -17 -26 4 -4 17 3 28 15 27 29 21 35
-11 11z"/>
<path d="M1000 1795 c-7 -8 -9 -23 -5 -32 6 -16 8 -16 26 6 18 22 18 41 0 41
-5 0 -14 -7 -21 -15z"/>
<path d="M817 1786 c-7 -19 1 -46 14 -46 18 0 22 31 7 47 -14 13 -16 13 -21
-1z"/>
<path d="M3076 1578 c-28 -39 -17 -88 18 -88 32 0 79 66 65 92 -14 26 -64 24
-83 -4z m44 -18 c0 -5 -5 -10 -11 -10 -5 0 -7 5 -4 10 3 6 8 10 11 10 2 0 4
-4 4 -10z"/>
<path d="M2984 1516 c-5 -13 -2 -23 9 -31 21 -15 22 -45 2 -71 -20 -26 -19
-44 4 -44 45 0 50 48 11 127 -16 33 -20 35 -26 19z"/>
<path d="M3177 1492 c-9 -9 -19 -41 -23 -70 -6 -47 -5 -52 13 -52 11 0 41 14
67 31 38 26 46 36 42 53 -3 12 -6 24 -6 27 0 8 -47 29 -64 29 -7 0 -20 -8 -29
-18z m56 -32 c7 -26 -18 -47 -37 -31 -18 15 -9 51 14 51 10 0 20 -9 23 -20z"/>
<path d="M903 1019 c-40 -25 -45 -54 -9 -45 15 4 28 0 36 -9 17 -20 77 -19 88
1 6 11 17 15 31 11 36 -9 25 26 -15 46 -46 23 -92 21 -131 -4z"/>
<path d="M430 839 c1 -41 2 -43 15 -25 19 25 19 40 0 56 -13 11 -15 6 -15 -31z"/>
<path d="M1410 785 c0 -8 5 -15 10 -15 6 0 10 7 10 15 0 8 -4 15 -10 15 -5 0
-10 -7 -10 -15z"/>
<path d="M1328 758 c-34 -24 -35 -32 -3 -46 31 -14 32 -41 4 -76 -25 -31 -15
-50 22 -44 23 3 24 5 21 88 -2 47 -7 88 -10 92 -4 4 -19 -2 -34 -14z"/>
<path d="M890 625 c-6 -30 -9 -64 -5 -75 7 -22 30 -27 40 -9 10 14 -4 139 -15
139 -5 0 -14 -25 -20 -55z"/>
<path d="M1050 660 c0 -11 5 -20 10 -20 6 0 10 9 10 20 0 11 -4 20 -10 20 -5
0 -10 -9 -10 -20z"/>
</g>
</svg>
